# xmcd
#
# Track frame offsets:
#	150
#	12655
#	24572
#	37275
#	50505
#	64047
#	76522
#	86857
#	99150
#	110792
#	120040
#	129437
#	138730
#	148820
#	159935
#	170910
#	182690
#
# Disc length: 2585 seconds
#
# Revision: 5
# Processed by: cddbd v1.5.2PL0 Copyright (c) Steve Scherf et al.
# Submitted via: audiograbber 1.83.01
#
DISCID=e90a1711
DTITLE=Flatt and Scruggs - The Essential Flatt and Scruggs: 'Tis Sweet To Be Rememb
DTITLE=ered... [Disc 1]
DYEAR=1997
DGENRE=Bluegrass
TTITLE0=Come Back Darling
TTITLE1=I'm Head Over Heels In Love
TTITLE2=I'm Workin' On A Road (To Glory Land)
TTITLE3='Tis Sweet To Be Remembered
TTITLE4=Earl's Breakdown
TTITLE5=Flint Hill Special
TTITLE6=Foggy Mountain Chimes
TTITLE7=That Old Book Of Mine
TTITLE8=Til The End Of The World Rolls Around
TTITLE9=Foggy Mountain Special
TTITLE10=Randy Lynn Rag
TTITLE11=Shuckin' The Corn
TTITLE12=Don't Let Your Deal Go Down
TTITLE13=I'll Never Shed Another Tear
TTITLE14=Big Black Train
TTITLE15=Crying My Heart Out Over You
TTITLE16=Cabin In The Hills
EXTD=
EXTT0=
EXTT1=
EXTT2=
EXTT3=
EXTT4=
EXTT5=
EXTT6=
EXTT7=
EXTT8=
EXTT9=
EXTT10=
EXTT11=
EXTT12=
EXTT13=
EXTT14=
EXTT15=
EXTT16=
PLAYORDER=
